<svg width="1272" height="493" viewBox="0 0 1272 493" fill="none" xmlns="http://www.w3.org/2000/svg">
<path d="M282.559 198.871H228.504C226.962 190.007 224.12 182.154 219.977 175.312C215.833 168.375 210.678 162.497 204.512 157.68C198.345 152.862 191.311 149.249 183.41 146.84C175.605 144.335 167.174 143.082 158.117 143.082C142.026 143.082 127.766 147.129 115.336 155.223C102.906 163.22 93.1745 174.975 86.1406 190.488C79.1068 205.905 75.5898 224.742 75.5898 247C75.5898 269.643 79.1068 288.721 86.1406 304.234C93.2708 319.651 103.003 331.31 115.336 339.211C127.766 347.016 141.978 350.918 157.973 350.918C166.837 350.918 175.124 349.762 182.832 347.449C190.637 345.04 197.622 341.523 203.789 336.898C210.052 332.273 215.303 326.589 219.543 319.844C223.879 313.099 226.866 305.391 228.504 296.719L282.559 297.008C280.535 311.076 276.151 324.276 269.406 336.609C262.758 348.943 254.038 359.831 243.246 369.273C232.454 378.62 219.832 385.943 205.379 391.242C190.926 396.445 174.883 399.047 157.25 399.047C131.234 399.047 108.013 393.025 87.5859 380.98C67.1589 368.936 51.0677 351.544 39.3125 328.805C27.5573 306.065 21.6797 278.797 21.6797 247C21.6797 215.107 27.6055 187.839 39.457 165.195C51.3086 142.456 67.4479 125.064 87.875 113.02C108.302 100.975 131.427 94.9531 157.25 94.9531C173.727 94.9531 189.047 97.2656 203.211 101.891C217.375 106.516 229.997 113.309 241.078 122.27C252.159 131.134 261.264 142.022 268.395 154.934C275.621 167.749 280.342 182.395 282.559 198.871Z" fill="#667EEA"/>
<path d="M454.488 395L370.949 99H428.617L481.949 316.52H484.695L541.641 99H594.105L651.195 316.664H653.797L707.129 99H764.797L681.258 395H628.359L569.102 187.309H566.789L507.387 395H454.488ZM855.599 99V395H801.978V99H855.599ZM913.664 395V99H967.285V235.004H970.898L1086.38 99H1151.85L1037.38 231.824L1152.86 395H1088.4L1000.09 268.102L967.285 306.836V395H913.664ZM1242.73 99V395H1189.1V99H1242.73Z" fill="#667EEA"/>
<rect x="298" y="99" width="53" height="296" fill="#667EEA"/>
<rect x="175" y="221" width="123" height="52" fill="#667EEA"/>
</svg>
